<?xml version="1.0" encoding="UTF-8"?>
<!-- Generator: visioncortex VTracer 0.6.12 -->
<svg version="1.1" xmlns="http://www.w3.org/2000/svg" width="384" height="384">
<path d="M0 0 C6.07 -0.01 12.13 -0.02 18.2 -0.03 C25.68 -0.05 33.16 -0.05 40.64 -0.05 C44.51 -0.05 48.37 -0.05 52.24 -0.06 C55.82 -0.07 59.41 -0.07 62.99 -0.07 C64.9 -0.06 66.8 -0.07 68.71 -0.08 C80.9 -0.04 90.71 0.97 100.8 8.18 C101.85 8.9 102.9 9.62 103.99 10.37 C114.09 20.47 117.17 31.71 117.21 45.66 C117.2 47.14 117.19 48.63 117.19 50.12 C117.19 51.71 117.2 53.3 117.2 54.89 C117.22 59.19 117.21 63.48 117.2 67.78 C117.2 72.29 117.2 76.8 117.21 81.31 C117.21 88.88 117.21 96.45 117.19 104.02 C117.17 112.76 117.18 121.5 117.2 130.23 C117.21 137.75 117.21 145.27 117.2 152.79 C117.2 157.27 117.2 161.76 117.21 166.24 C117.22 170.46 117.21 174.67 117.19 178.89 C117.19 180.43 117.19 181.97 117.2 183.51 C117.26 198.3 114.68 208.73 104.68 219.87 C96.98 227.26 87.48 230.34 77.08 230.29 C76.3 230.29 75.52 230.29 74.71 230.29 C72.09 230.29 69.47 230.28 66.85 230.27 C64.97 230.27 63.09 230.27 61.21 230.27 C57.16 230.27 53.11 230.26 49.06 230.26 C42.66 230.25 36.26 230.25 29.85 230.26 C28.77 230.26 27.69 230.26 26.58 230.27 C24.37 230.27 22.16 230.27 19.95 230.28 C5.03 230.3 -9.87 230.31 -24.78 230.28 C-34.84 230.26 -44.9 230.26 -54.96 230.29 C-60.28 230.31 -65.6 230.31 -70.92 230.28 C-75.93 230.26 -80.93 230.27 -85.94 230.3 C-87.77 230.3 -89.61 230.3 -91.44 230.28 C-107.03 230.13 -107.03 230.13 -112.1 234.48 C-113.17 235.68 -114.21 236.91 -115.2 238.18 C-115.95 238.89 -116.7 239.6 -117.47 240.34 C-118.07 240.94 -118.66 241.54 -119.27 242.15 C-119.96 242.85 -120.65 243.54 -121.37 244.26 C-121.72 244.62 -121.72 244.62 -123.53 246.45 C-124.29 247.21 -125.05 247.97 -125.83 248.76 C-128.23 251.17 -130.62 253.58 -133.01 255.99 C-136.18 259.19 -139.36 262.38 -142.53 265.57 C-143.26 266.31 -143.98 267.04 -144.73 267.8 C-145.4 268.47 -146.08 269.15 -146.77 269.85 C-147.36 270.45 -147.96 271.04 -148.56 271.66 C-150.99 273.92 -152.79 275.11 -156.07 275.68 C-159.7 275.1 -160.93 273.91 -163.16 271.06 C-165.1 267.55 -164.81 263.98 -164.69 260.06 C-164.68 259.2 -164.67 258.35 -164.67 257.46 C-164.64 254.74 -164.58 252.02 -164.51 249.3 C-164.49 247.45 -164.46 245.6 -164.44 243.75 C-164.39 239.22 -164.3 234.7 -164.2 230.18 C-164.53 230.19 -164.53 230.19 -166.19 230.24 C-176.84 230.41 -185.28 227.44 -193.2 220.18 C-201.77 211.73 -205.24 202.03 -205.45 190.09 C-205.47 187.21 -205.47 184.33 -205.46 181.45 C-205.46 179.86 -205.47 178.27 -205.47 176.67 C-205.48 172.37 -205.47 168.06 -205.47 163.75 C-205.46 159.23 -205.47 154.71 -205.47 150.19 C-205.48 142.6 -205.47 135.02 -205.46 127.43 C-205.45 118.67 -205.45 109.91 -205.46 101.15 C-205.47 93.62 -205.47 86.09 -205.47 78.55 C-205.47 74.06 -205.47 69.57 -205.47 65.07 C-205.48 60.85 -205.47 56.62 -205.46 52.39 C-205.46 50.85 -205.46 49.3 -205.47 47.76 C-205.5 33.03 -203.79 22 -193.45 10.87 C-185.7 3.51 -177.34 1.1 -166.88 0.97 C-166.51 0.97 -166.51 0.97 -164.66 0.94 C-162.18 0.91 -159.7 0.89 -157.22 0.86 C-155.4 0.84 -153.58 0.82 -151.77 0.8 C-146.73 0.74 -141.69 0.69 -136.65 0.65 C-133.45 0.62 -130.25 0.59 -127.05 0.55 C-84.7 0.15 -42.35 0.04 0 0 Z M-15.2 86.18 C-19.02 91.28 -19.63 95.88 -19.2 102.18 C-17.35 107.3 -14.73 110.18 -10.2 113.18 C-6.23 114.47 -3.01 114.45 0.99 113.12 C4.84 110.47 7.68 107.41 9.8 103.18 C10.36 97.22 10.3 92.25 6.8 87.18 C3.15 83.8 0.54 82.35 -4.45 81.87 C-9.27 82.27 -11.27 83.38 -15.2 86.18 Z M30.8 82.18 C24.43 90.77 19.14 99.93 13.8 109.18 C12.43 111.55 11.06 113.92 9.68 116.29 C8.76 117.88 7.85 119.47 6.94 121.06 C4.62 125.08 2.26 129.07 -0.19 133.02 C-0.66 133.79 -1.14 134.57 -1.63 135.36 C-2.53 136.83 -3.45 138.3 -4.38 139.75 C-5.59 141.74 -5.59 141.74 -7.2 145.18 C-6.46 147.65 -6.46 147.65 -5.2 149.18 C-2.93 149.01 -2.93 149.01 -0.2 148.18 C1.65 145.91 1.65 145.91 3.43 142.8 C3.76 142.23 4.09 141.67 4.43 141.08 C5.57 139.12 6.68 137.15 7.8 135.18 C9.12 132.88 10.45 130.58 11.78 128.28 C12.72 126.66 13.65 125.04 14.58 123.41 C17.62 118.15 20.75 112.95 23.99 107.8 C24.19 107.48 24.19 107.48 25.22 105.84 C27.2 102.69 29.2 99.56 31.24 96.44 C31.62 95.84 32 95.25 32.39 94.64 C33.42 93.04 34.46 91.44 35.5 89.85 C36.8 87.18 36.8 87.18 36.51 84.82 C36.39 84.55 36.39 84.55 35.8 83.18 C34.15 82.85 32.5 82.52 30.8 82.18 Z M62.1 83.3 C56.49 91.39 62 110.12 63.41 119.15 C63.8 121.18 63.8 121.18 64.8 124.18 C66.45 124.18 68.1 124.18 69.8 124.18 C74.21 115.35 74.1 102.31 74.18 92.62 C74.19 91.8 74.2 90.99 74.22 90.15 C74.2 87.86 74.2 87.86 73.8 84.18 C70.13 81.73 66.05 80.69 62.1 83.3 Z M-145.2 83.18 C-147.2 86.17 -147.66 87.78 -148.26 91.24 C-149.11 95.99 -149.11 95.99 -150.2 98.18 C-152.23 98.4 -154.25 98.62 -156.29 98.74 C-158.2 99.18 -158.2 99.18 -160.2 102.18 C-160.2 104.24 -160.2 104.24 -159.2 106.18 C-156.46 107.35 -154.19 108.18 -151.2 108.18 C-151.46 110.12 -151.73 112.06 -152.01 113.99 C-152.16 115.07 -152.31 116.15 -152.47 117.26 C-153.22 120.26 -153.7 121.42 -156.2 123.18 C-157.87 123.22 -159.53 123.22 -161.2 123.18 C-163.2 125.18 -163.2 125.18 -163.32 127.8 C-163.28 128.59 -163.24 129.37 -163.2 130.18 C-160.89 131.17 -158.58 132.16 -156.2 133.18 C-156.53 137.8 -156.86 142.42 -157.2 147.18 C-155.55 147.84 -153.9 148.5 -152.2 149.18 C-148.8 146.54 -148.4 143.66 -147.57 139.55 C-146.28 133.26 -146.28 133.26 -145.2 132.18 C-143.51 132.11 -141.82 132.09 -140.14 132.12 C-139.22 132.13 -138.3 132.13 -137.35 132.14 C-136.64 132.16 -135.93 132.17 -135.2 132.18 C-134.22 135.98 -134.29 138.62 -135.2 142.43 C-135.57 144 -135.92 145.59 -136.2 147.18 C-135.2 148.18 -135.2 148.18 -132.14 148.24 C-131.17 148.22 -130.2 148.2 -129.2 148.18 C-127.35 144.87 -126.45 141.61 -125.57 137.93 C-125.31 136.85 -125.05 135.77 -124.79 134.66 C-124.59 133.84 -124.4 133.02 -124.2 132.18 C-123.56 132.12 -122.92 132.06 -122.27 132 C-121.44 131.91 -120.61 131.83 -119.76 131.74 C-118.94 131.66 -118.12 131.58 -117.27 131.5 C-115.2 131.18 -115.2 131.18 -114.2 130.18 C-114.07 127.68 -114.07 127.68 -114.2 125.18 C-116.17 123.21 -119.55 123.52 -122.2 123.18 C-122.41 118.09 -121.84 114 -120.2 109.18 C-118.23 107.21 -114.85 107.52 -112.2 107.18 C-110.07 102.55 -110.07 102.55 -111.2 99.18 C-114.76 97.99 -114.76 97.99 -118.2 97.18 C-118.12 96.25 -118.03 95.32 -117.95 94.37 C-117.84 93.17 -117.74 91.97 -117.64 90.74 C-117.53 89.55 -117.43 88.35 -117.32 87.12 C-117.28 86.15 -117.24 85.18 -117.2 84.18 C-118.2 83.18 -118.2 83.18 -120.64 82.99 C-123.2 83.18 -123.2 83.18 -125.2 85.18 C-125.76 87.71 -125.76 87.71 -126.2 90.68 C-126.98 95.96 -126.98 95.96 -129.2 98.18 C-131.58 98.37 -131.58 98.37 -134.32 98.3 C-135.24 98.29 -136.15 98.27 -137.08 98.25 C-137.78 98.23 -138.48 98.2 -139.2 98.18 C-139.12 97.26 -139.03 96.35 -138.95 95.41 C-138.84 94.22 -138.74 93.03 -138.64 91.8 C-138.53 90.62 -138.43 89.44 -138.32 88.22 C-138.2 85.18 -138.2 85.18 -139.2 83.18 C-142.07 82.99 -142.07 82.99 -145.2 83.18 Z M-91.34 94.82 C-98.2 103.5 -100.11 113.4 -99.2 124.18 C-96.78 135.3 -92.63 143.58 -83.2 150.18 C-74.15 155.27 -62.36 155.89 -52.33 153.5 C-50.14 152.68 -50.14 152.68 -47.2 151.18 C-47.53 149.53 -47.86 147.88 -48.2 146.18 C-51.39 145.11 -52.92 145.21 -55.95 146.62 C-62.7 149.32 -68.9 148.57 -75.67 146.35 C-82.53 143.18 -87.49 137.88 -90.54 131.04 C-93.33 123.14 -93.06 114.5 -90.36 106.6 C-86.36 98.27 -79.67 93.4 -71.2 90.18 C-63.66 87.86 -56.11 88.48 -49.13 92.05 C-43.07 95.6 -38.44 100.46 -36.2 107.18 C-35.59 115.17 -35.2 121.66 -40.2 128.18 C-41.2 129.18 -41.2 129.18 -44.26 129.24 C-45.23 129.22 -46.2 129.2 -47.2 129.18 C-48.59 126.39 -48.1 124.4 -47.82 121.3 C-47.73 120.15 -47.63 118.99 -47.52 117.8 C-47.42 116.6 -47.31 115.41 -47.2 114.18 C-47.01 111.91 -46.82 109.64 -46.64 107.37 C-46.49 105.64 -46.35 103.91 -46.2 102.18 C-47.52 101.52 -48.84 100.86 -50.2 100.18 C-51.85 101.5 -53.5 102.82 -55.2 104.18 C-55.98 103.68 -56.77 103.19 -57.57 102.68 C-62.29 100.73 -66.17 100.09 -71.2 101.18 C-75.26 103.59 -78.24 106.55 -80.64 110.62 C-82.24 117.9 -83.17 124.36 -79.09 130.98 C-77.41 133.15 -75.83 134.88 -73.32 136.05 C-72.62 136.09 -71.92 136.14 -71.2 136.18 C-70.07 136.26 -68.93 136.34 -67.76 136.43 C-63.91 136.16 -62.4 135.2 -59.2 133.18 C-56.64 132.8 -56.64 132.8 -54.2 133.18 C-53.6 133.67 -53 134.17 -52.39 134.68 C-49.13 136.91 -45.97 136.7 -42.2 136.18 C-37.04 134.36 -34.33 131.62 -31.2 127.18 C-27.99 119.3 -27.53 109.21 -30.76 101.24 C-35.23 92.87 -41.76 86.58 -50.76 83.43 C-66.11 79.22 -80.41 83.52 -91.34 94.82 Z M21.93 122.49 C18.66 126.69 19.18 131.8 19.38 136.89 C19.94 141.32 20.61 143.07 23.8 146.18 C28.29 149.49 32.12 149.57 37.46 148.81 C41.09 147.83 42.64 146.19 44.8 143.18 C47.4 138.34 48.39 134.65 47.8 129.18 C46.15 124.07 44.53 120.85 39.8 118.18 C32.29 116.17 27.95 117.64 21.93 122.49 Z M59.8 138.18 C59.18 141.12 59.18 141.12 59.8 144.18 C61.86 147.12 61.86 147.12 64.8 149.18 C69.17 149.33 71.04 148.86 74.3 145.93 C75.8 143.18 75.8 143.18 75.8 140.62 C74.56 137.59 73.45 136.11 70.8 134.18 C65.83 133.33 63.15 134.43 59.8 138.18 Z " fill="#000000" transform="translate(235.19999432563782,52.821344792842865)"/>
<path d="M0 0 C2.87 2.57 3.87 4.2 4.5 8 C3.87 11.8 2.87 13.43 0 16 C-3.62 16.68 -5.26 16.47 -8.38 14.5 C-10.65 10.99 -10.82 8.07 -10 4 C-7.33 -0.11 -4.78 -0.9 0 0 Z " fill="#000000" transform="translate(234,143)"/>
<path d="M0 0 C3.5 1.79 5 3.07 6.94 6.5 C7.76 12.9 6.61 16.25 2.94 21.5 C-0.58 23.85 -1.92 24.08 -6.06 23.5 C-8.64 21.33 -10.55 19.52 -12.06 16.5 C-12.02 11.29 -11.46 6.62 -8.06 2.5 C-5.06 -0.01 -3.9 -0.64 0 0 Z " fill="#000000" transform="translate(173.0625,159.5)"/>
<path d="M0 0 C0.79 -0.01 1.59 -0.03 2.41 -0.04 C4.5 0.19 4.5 0.19 6.5 2.19 C6.55 4.68 6.55 4.68 6.25 7.62 C6.21 8.11 6.21 8.11 5.98 10.56 C5.5 13.19 5.5 13.19 3.5 16.19 C-0.77 17.15 -4.28 17.43 -8.5 16.19 C-8.83 15.86 -9.16 15.53 -9.5 15.19 C-9.45 13.04 -9.45 13.04 -9.19 10.38 C-9.11 9.5 -9.03 8.63 -8.95 7.73 C-8.5 5.17 -7.87 3.39 -6.5 1.19 C-4.15 0.01 -2.62 0.02 0 0 Z " fill="#000000" transform="translate(99.5,159.8125)"/>
<path d="M0 0 C3 0.88 3 0.88 4.88 2.44 C6.49 5.94 6.78 9.14 6 12.88 C3.88 15.94 3.88 15.94 1 17.88 C-2.12 17.94 -2.12 17.94 -5 16.88 C-7.74 14.23 -8.82 11.67 -9 7.88 C-7.13 3.11 -5.62 -0.23 0 0 Z " fill="#000000" transform="translate(270,177.125)"/>
</svg>
