<?xml version="1.0" encoding="UTF-8"?>
<!-- Generator: visioncortex VTracer 0.6.12 -->
<svg version="1.1" xmlns="http://www.w3.org/2000/svg" width="384" height="384">
<path d="M0 0 C25.22 16.47 39.46 48.78 45.48 77.2 C51.02 106.87 43.47 138.87 26.61 163.66 C19.48 173.85 11.72 183.16 2 191 C1.67 191.29 1.67 191.29 0.02 192.75 C-2 194 -2 194 -4.02 193.88 C-6.33 192.85 -7.83 191.65 -9.69 189.94 C-10.38 189.3 -11.08 188.67 -11.79 188.02 C-12.52 187.35 -13.25 186.69 -14 186 C-14.37 185.69 -14.37 185.69 -16.24 184.11 C-37.45 166.09 -51.44 137.21 -53.83 109.57 C-56.06 75.4 -47.22 42.9 -24.52 16.69 C-8.62 -1.03 -8.62 -1.03 0 0 Z " fill="#000000" transform="translate(193,82)"/>
<path d="M0 0 C2.8 1.75 4.3 2.82 5.79 5.75 C5.9 8.52 5.9 8.52 5.54 11.56 C5.43 12.56 5.33 13.55 5.21 14.58 C4.92 16.8 4.6 19.02 4.27 21.23 C0.34 50.43 10.49 83.22 27.96 106.65 C32.24 112.13 36.7 116.82 42.31 121 C42.8 121.58 43.29 122.15 43.79 122.75 C43.53 125.46 43.53 125.46 42.79 127.75 C26.4 127.4 11.92 121.66 -2.21 113.75 C-3.2 113.19 -4.2 112.63 -5.23 112.06 C-12.74 107.57 -19.03 101.89 -25.21 95.75 C-25.69 95.26 -26.18 94.78 -26.68 94.29 C-47.77 73.07 -58.8 43.67 -59.39 14 C-59.19 -5.7 -59.19 -5.7 -54.21 -12.25 C-38 -17.66 -14.49 -7.22 0 0 Z " fill="#000000" transform="translate(128.20703125,147.25390625)"/>
<path d="M0 0 C5.05 5.79 4.48 13.4 4.44 20.69 C4.44 21.22 4.44 21.22 4.42 23.9 C3.92 58.32 -8.9 86.43 -33.15 110.77 C-49.48 126.52 -72.55 138.78 -95.56 139.56 C-96.33 139.52 -97.09 139.48 -97.88 139.44 C-98.54 137.65 -98.54 137.65 -98.88 135.44 C-97.84 133.69 -97.84 133.69 -96.25 132 C-95.74 131.44 -95.23 130.89 -94.71 130.32 C-93.3 128.87 -91.87 127.44 -90.43 126.02 C-82.07 117.59 -76.66 108.97 -71.73 98.28 C-70.99 96.68 -70.2 95.1 -69.41 93.53 C-65.61 85.84 -63.62 77.79 -61.88 69.44 C-61.65 68.35 -61.42 67.26 -61.18 66.14 C-58.65 51.57 -58.75 35.61 -61.14 21.02 C-60.74 17.15 -58.69 14.93 -55.88 12.44 C-53.49 10.8 -51.01 9.57 -48.38 8.38 C-47.65 8.04 -46.92 7.7 -46.17 7.36 C-34.94 2.42 -11.56 -6.28 0 0 Z " fill="#000000" transform="translate(305.875,135.5625)"/>
<path d="M0 0 C2.02 2.39 3.16 4.14 4.5 6.88 C5.26 8.27 6.02 9.66 6.79 11.04 C6.98 11.38 6.98 11.38 7.92 13.11 C20.14 34.51 45.38 52.69 68.88 59.2 C69.91 59.46 70.94 59.73 72 60 C73.02 60.29 74.04 60.57 75.09 60.87 C81 62.47 86.6 63.38 92.72 63.59 C95.41 64.07 96.31 64.91 98 67 C96.97 69.85 96.15 70.91 93.56 72.56 C84.57 76.7 75.69 79.12 66 81 C64.86 81.23 63.73 81.45 62.55 81.69 C34.96 86.57 7.31 79.14 -15.51 63.25 C-17.74 61.57 -19.88 59.82 -22 58 C-22.81 57.31 -23.62 56.62 -24.45 55.91 C-46.11 36.98 -46.11 36.98 -47.29 26.41 C-46.78 22.17 -44.06 19.71 -41 17 C-33.78 11.67 -25.79 7.78 -17.69 4 C-17.27 3.8 -17.27 3.8 -15.16 2.79 C-9.89 0.42 -5.77 -1.07 0 0 Z " fill="#000000" transform="translate(76,218)"/>
<path d="M0 0 C15.02 0.24 32.95 10.34 44.2 20.08 C46 22 46 22 47.62 25.31 C46.59 31.41 42.92 35.36 39 40 C38.79 40.25 38.79 40.25 37.71 41.52 C17.97 64.63 -9.11 78.9 -39.14 82.74 C-48.78 83.39 -57.67 82.9 -67.12 80.94 C-67.66 80.83 -67.66 80.83 -70.38 80.27 C-77.26 78.78 -83.91 76.96 -90.5 74.5 C-91.25 74.23 -92.01 73.96 -92.78 73.68 C-94.84 72.84 -94.84 72.84 -98 71 C-98.97 68.28 -98.97 68.28 -99 66 C-95.5 63.66 -93.47 63.59 -89.31 63.19 C-69.86 60.92 -51.51 52.76 -36 41 C-35.57 40.68 -35.57 40.68 -33.41 39.05 C-31.25 37.39 -29.12 35.7 -27 34 C-26.01 33.26 -25.02 32.51 -24 31.75 C-15.51 24.5 -9.77 14.75 -4.07 5.31 C-2 2 -2 2 0 0 Z " fill="#000000" transform="translate(304,218)"/>
</svg>
