<?xml version="1.0" encoding="UTF-8"?>
<!-- Generator: visioncortex VTracer 0.6.12 -->
<svg version="1.1" xmlns="http://www.w3.org/2000/svg" width="384" height="384">
<path d="M0 0 C1.01 0.76 2.02 1.53 3.06 2.31 C25.79 23.11 34.57 52.59 36.18 82.38 C36.96 118.67 22.91 151.64 1 180 C0.68 180.42 0.68 180.42 -0.92 182.54 C-5.09 187.92 -9.63 192.67 -14.49 197.43 C-17.85 200.87 -20.86 204.53 -23.85 208.3 C-25.21 210.02 -26.62 211.7 -28.06 213.36 C-37.76 224.64 -42.46 237.93 -47.14 251.83 C-54.2 272.6 -67.28 287.15 -87 297 C-91.61 298.82 -95.8 299.33 -100.71 299.37 C-101.45 299.38 -102.18 299.39 -102.94 299.4 C-104.48 299.41 -106.03 299.42 -107.58 299.43 C-109.9 299.44 -112.22 299.49 -114.53 299.54 C-130.93 299.72 -145.53 295.17 -157.75 283.69 C-168.49 272.08 -175.09 257.97 -175.31 242.06 C-175.34 241.37 -175.37 240.68 -175.4 239.97 C-175.46 234.8 -174.27 231.95 -171 228 C-167.23 225.49 -165.47 225.47 -161 226 C-157.41 228.03 -155.6 229.26 -154.25 233.17 C-153.72 235.78 -153.34 238.36 -153 241 C-151.41 251.78 -148.59 260.73 -140 268 C-127.56 275.61 -115.92 278.76 -101.5 275.81 C-89.29 272.78 -81.13 266.62 -74.66 255.95 C-70.85 249.19 -68.09 242.41 -65.81 235 C-59.75 215.87 -48.37 200.59 -34.85 186.09 C-15.2 164.94 0.04 143.01 8 115 C8.18 114.4 8.18 114.4 9.09 111.39 C15.33 86.78 12.18 58.3 0 36 C-12.13 16.19 -29.31 6.14 -51.25 0.25 C-72 -4.61 -94.54 -2.51 -113.14 8.18 C-130.75 19.4 -143.33 33.52 -149 54 C-149.21 54.75 -149.43 55.49 -149.65 56.26 C-151.12 62.01 -151.35 67.75 -151.56 73.67 C-152.2 78.53 -153.85 81.85 -157.31 85.31 C-160.44 87.28 -162.3 88 -166 88 C-170.35 85.78 -173.24 83.59 -175 79 C-177.77 53.37 -165.51 27.55 -150 8 C-147.81 5.45 -145.54 3.19 -143 1 C-142.28 0.37 -141.55 -0.26 -140.8 -0.91 C-99.6 -35.29 -40.53 -34.46 0 0 Z " fill="#000000" transform="translate(261,54)"/>
<path d="M0 0 C14.26 11.97 20.88 25.99 22.7 44.18 C23.55 54.96 23.55 54.96 20.58 58.87 C17.81 61.52 15.7 62.84 11.94 63.69 C7.82 62.72 6.02 60.95 3 58 C1.78 55.55 1.85 53.44 1.76 50.74 C1.36 39.06 -1 28 -9 19 C-17.48 11.44 -27.69 9.4 -38.8 9.72 C-49.4 10.65 -58.08 14.46 -65.31 22.38 C-72.5 31.45 -74.36 41.4 -74.31 52.75 C-74.33 53.57 -74.34 54.4 -74.36 55.25 C-74.37 59.97 -74.17 63.25 -71 67 C-68.65 68.7 -68.65 68.7 -65.94 70.25 C-51.94 78.81 -42.46 90.36 -38.38 106.45 C-36.43 119.54 -38.26 133.81 -46.23 144.68 C-50.11 149.38 -54.4 152.73 -59.44 156.12 C-60.89 157.13 -62.35 158.13 -63.81 159.13 C-64.51 159.61 -65.22 160.09 -65.94 160.58 C-67.91 161.94 -69.84 163.34 -71.76 164.75 C-78.14 169.18 -85.25 171.21 -93 170 C-100.33 167.74 -106.55 164 -110.38 157.19 C-113.16 150.93 -112.45 145.8 -110.5 139.44 C-106.88 130.3 -99.78 126.77 -91.43 122.4 C-87.39 120.07 -85.67 117.44 -83.75 113.31 C-81.34 102.66 -84.54 95.25 -89.12 85.66 C-93.87 75.47 -95.56 65.39 -95.5 54.19 C-95.5 53.05 -95.49 51.92 -95.49 50.75 C-95.31 41.6 -93.84 34.31 -90 26 C-89.7 25.26 -89.4 24.51 -89.09 23.75 C-82.42 8.44 -69.63 -2.57 -54.59 -9.04 C-36.33 -15.25 -15.35 -11.05 0 0 Z " fill="#000000" transform="translate(226,94)"/>
</svg>
