<?xml version="1.0" encoding="UTF-8"?>
<!-- Generator: visioncortex VTracer 0.6.12 -->
<svg version="1.1" xmlns="http://www.w3.org/2000/svg" width="384" height="384">
<path d="M0 0 C7.64 -0.42 14.39 1.97 20.89 5.88 C27.77 13.14 31.6 20.6 31.32 30.68 C30.72 36.92 28.62 40.79 24.33 45.32 C21.09 48.78 21.09 48.78 21.02 52.63 C22.08 55.19 22.08 55.19 24.08 56.19 C25.78 56.27 27.47 56.28 29.17 56.26 C30.23 56.25 31.29 56.24 32.39 56.23 C33.54 56.21 34.69 56.2 35.88 56.18 C38.31 56.17 40.73 56.15 43.16 56.13 C47 56.1 50.83 56.07 54.67 56.02 C58.36 55.98 62.06 55.95 65.75 55.93 C66.33 55.92 66.33 55.92 69.22 55.88 C79.58 55.84 79.58 55.84 84.08 59.19 C86.62 62.74 87.46 65.18 87.45 69.53 C87.46 70.57 87.47 71.61 87.47 72.68 C87.47 73.24 87.47 73.24 87.45 76.06 C87.45 76.64 87.45 76.64 87.45 79.56 C87.44 82 87.43 84.44 87.42 86.88 C87.39 90.61 87.4 94.34 87.4 98.07 C87.4 100.44 87.39 102.81 87.38 105.19 C87.38 106.3 87.38 107.41 87.39 108.56 C87.29 118.49 87.29 118.49 85.08 123.19 C83.33 124.25 83.33 124.25 81.08 124.19 C78.21 123.01 78.21 123.01 75.08 121.32 C66.86 116.9 59.63 116.06 50.39 117.94 C39.72 121.97 33.22 126.77 28.08 137.19 C24.11 146.89 24.18 156.82 27.89 166.63 C31.78 175.22 36.9 181.43 45.46 185.57 C50.22 187.31 54.75 187.58 59.77 187.63 C60.48 187.64 61.19 187.65 61.93 187.66 C67.76 187.56 72.59 186.3 77.14 182.44 C79.08 181.19 79.08 181.19 82.21 181.25 C85.08 182.19 85.08 182.19 86.24 183.94 C87.19 186.48 87.35 188.43 87.37 191.14 C87.39 192.12 87.4 193.1 87.41 194.11 C87.41 195.17 87.42 196.22 87.42 197.31 C87.42 197.85 87.42 197.85 87.44 200.61 C87.45 202.92 87.45 205.22 87.45 207.53 C87.46 211.05 87.49 214.57 87.53 218.09 C87.54 220.33 87.54 222.57 87.54 224.81 C87.56 225.86 87.57 226.91 87.59 227.99 C87.55 234.01 87.23 237.68 83.08 242.19 C79.71 244.37 76.92 244.44 72.95 244.45 C71.69 244.45 70.43 244.46 69.13 244.46 C67.74 244.46 66.35 244.45 64.95 244.45 C63.48 244.45 62.02 244.46 60.55 244.46 C56.56 244.47 52.57 244.47 48.58 244.46 C44.41 244.45 40.24 244.46 36.06 244.46 C29.05 244.47 22.04 244.46 15.02 244.45 C6.92 244.44 -1.18 244.44 -9.28 244.46 C-16.24 244.46 -23.2 244.47 -30.16 244.46 C-34.32 244.46 -38.47 244.46 -42.63 244.46 C-46.54 244.47 -50.44 244.47 -54.35 244.45 C-55.78 244.45 -57.22 244.45 -58.65 244.46 C-60.61 244.46 -62.57 244.45 -64.53 244.45 C-65.62 244.44 -66.72 244.44 -67.85 244.44 C-74.19 243.92 -77.79 242.01 -81.92 237.19 C-83.93 233.94 -84.18 231.4 -84.21 227.6 C-84.21 227.04 -84.21 227.04 -84.25 224.2 C-84.25 222.99 -84.25 221.79 -84.25 220.54 C-84.26 219.3 -84.27 218.05 -84.27 216.77 C-84.28 214.13 -84.29 211.5 -84.29 208.87 C-84.29 206.17 -84.3 203.47 -84.33 200.78 C-84.37 196.89 -84.38 193 -84.38 189.11 C-84.39 187.9 -84.41 186.7 -84.42 185.46 C-84.39 179.09 -84.31 174.98 -79.92 170.19 C-77.06 167.86 -75.78 167.13 -72.08 167.41 C-68.6 168.27 -66.59 169.5 -63.73 171.63 C-62.89 172.25 -62.05 172.86 -61.19 173.5 C-60.81 173.78 -60.81 173.78 -58.92 175.19 C-53.6 178.73 -47.07 177.9 -40.92 177.19 C-34.62 174.87 -29.86 171.32 -26.92 165.19 C-23.4 156.93 -22.89 148.88 -25.93 140.35 C-29.34 133.01 -33.52 129.44 -40.92 126.19 C-48.72 125.09 -55.42 125.5 -62.11 129.81 C-63.92 131.19 -63.92 131.19 -66.48 133.5 C-69.48 135.58 -71.4 135.77 -74.99 135.58 C-78.14 134.95 -79.77 133.53 -81.92 131.19 C-83.72 127.5 -84.18 124.5 -84.21 120.41 C-84.22 119.27 -84.23 118.13 -84.25 116.96 C-84.25 115.74 -84.25 114.52 -84.25 113.26 C-84.26 112 -84.27 110.73 -84.27 109.43 C-84.28 106.76 -84.29 104.09 -84.29 101.42 C-84.29 98.01 -84.32 94.6 -84.35 91.19 C-84.38 87.92 -84.38 84.66 -84.38 81.39 C-84.39 80.78 -84.39 80.78 -84.42 77.7 C-84.39 70.97 -84.03 66.61 -79.92 61.19 C-72.91 55.14 -64.17 56.08 -55.42 56.19 C-46.81 56.24 -38.21 56.13 -29.61 55.82 C-28.57 55.79 -27.53 55.75 -26.46 55.72 C-25.5 55.68 -24.54 55.65 -23.55 55.61 C-22.71 55.57 -21.86 55.54 -20.98 55.51 C-18.92 55.19 -18.92 55.19 -16.92 53.19 C-16.92 49.38 -18.54 47.21 -20.79 44.32 C-25.1 38.78 -27.56 33.67 -27.26 26.58 C-26.01 17.79 -21.47 11.02 -14.92 5.19 C-10.19 2.04 -5.62 0.56 0 0 Z " fill="#000000" transform="translate(113.91796875,69.80859375)"/>
<path d="M0 0 C0.35 0 0.35 0 2.11 0.01 C2.47 0 2.47 0 4.33 -0.01 C6.76 -0.02 9.2 -0.02 11.63 -0.02 C13.32 -0.02 15.01 -0.03 16.7 -0.03 C20.24 -0.04 23.79 -0.04 27.33 -0.03 C31.87 -0.03 36.41 -0.04 40.95 -0.07 C44.44 -0.08 47.93 -0.08 51.42 -0.08 C53.09 -0.08 54.77 -0.09 56.44 -0.1 C58.78 -0.11 61.13 -0.1 63.47 -0.09 C64.16 -0.1 64.85 -0.11 65.56 -0.11 C71.51 -0.05 74.48 1.88 78.73 5.84 C84.06 12.65 82.13 24.65 82.16 32.81 C82.18 35.4 82.21 37.99 82.23 40.58 C82.27 44.64 82.3 48.69 82.31 52.75 C82.32 56.69 82.37 60.62 82.41 64.56 C82.41 65.16 82.41 65.16 82.4 68.24 C82.42 69.37 82.44 70.5 82.45 71.66 C82.46 72.65 82.47 73.65 82.47 74.67 C83.13 78.01 84.33 79.22 86.98 81.28 C92.28 81.53 95.88 78.59 100.03 75.66 C105.14 72.06 110.95 72.79 116.98 73.28 C124.21 75.24 129.14 80.69 133.65 86.39 C135.6 90.61 135.5 94.5 135.48 99.09 C135.51 99.96 135.54 100.82 135.57 101.71 C135.59 109.07 133.27 113.71 128.34 119.07 C123.47 123.88 117.41 126.17 110.59 126.34 C104.19 125.83 98.67 123.96 93.92 119.53 C90.98 117.28 90.98 117.28 87.73 117.28 C84.98 118.28 84.98 118.28 82.98 121.28 C82.72 123.54 82.72 123.54 82.7 126.21 C82.68 127.21 82.67 128.21 82.66 129.24 C82.65 130.33 82.65 131.41 82.64 132.52 C82.63 133.08 82.63 133.08 82.6 135.89 C82.55 139.46 82.51 143.03 82.48 146.59 C82.44 151.28 82.39 155.96 82.33 160.65 C82.32 161.72 82.32 162.8 82.31 163.9 C82.22 170.52 82.1 175.77 77.67 181.03 C72.81 185.11 68.83 185.53 62.56 185.53 C61.83 185.53 61.1 185.53 60.35 185.53 C57.96 185.53 55.56 185.52 53.16 185.51 C51.49 185.51 49.82 185.51 48.15 185.51 C44.66 185.51 41.17 185.5 37.67 185.49 C33.19 185.47 28.71 185.47 24.23 185.47 C20.78 185.47 17.34 185.46 13.89 185.45 C12.24 185.45 10.59 185.45 8.93 185.45 C6.63 185.45 4.32 185.44 2.02 185.43 C0.7 185.42 -0.61 185.42 -1.96 185.42 C-5.02 185.28 -5.02 185.28 -7.02 184.28 C-7.02 183.89 -7.02 183.89 -7.03 181.89 C-7.07 174.45 -7.12 167 -7.2 159.56 C-7.24 155.73 -7.27 151.91 -7.29 148.08 C-7.3 144.38 -7.34 140.69 -7.38 136.99 C-7.4 135.58 -7.41 134.18 -7.41 132.77 C-7.41 130.79 -7.44 128.82 -7.47 126.84 C-7.48 125.71 -7.49 124.59 -7.5 123.43 C-8.14 119.54 -9.58 117.36 -12.02 114.28 C-16.07 111.64 -19.2 110.58 -24.02 111.28 C-27.02 113.03 -27.02 113.03 -30.02 115.28 C-36.73 120.04 -41.46 121.83 -49.63 120.75 C-56.34 119.43 -62.34 115 -66.31 109.48 C-70.14 103.01 -71 96.69 -70.02 89.28 C-67.52 82.18 -64.39 76.4 -58.02 72.28 C-57.17 71.68 -56.33 71.09 -55.45 70.47 C-49.33 68.35 -42.52 67.97 -36.38 70.27 C-32.99 72.13 -30.05 74.25 -27.02 76.66 C-22.81 78.94 -19.55 78.6 -15.02 77.28 C-11.73 75.18 -10.18 73.53 -8.02 70.28 C-7.75 67.35 -7.75 67.35 -7.73 63.73 C-7.73 63.4 -7.73 63.4 -7.71 61.73 C-7.69 60.3 -7.69 58.87 -7.68 57.43 C-7.67 55.17 -7.65 52.9 -7.63 50.64 C-7.57 45.01 -7.54 39.39 -7.5 33.77 C-7.47 29.01 -7.43 24.26 -7.38 19.5 C-7.36 17.27 -7.35 15.03 -7.34 12.8 C-7.33 11.43 -7.32 10.07 -7.3 8.7 C-7.3 7.51 -7.29 6.31 -7.28 5.08 C-6.81 0.09 -4.49 0.05 0 0 Z " fill="#000000" transform="translate(219.016357421875,127.71783447265625)"/>
</svg>
